# xmcd
#
# Track frame offsets:
#	150
#	27720
#	51183
#	71845
#	98910
#	113808
#	136790
#	170740
#	193850
#	216718
#
# Disc length: 3220 seconds
#
# Revision: 262148
# Processed by: cddbd v1.5.2PL0 Copyright (c) Steve Scherf et al.
# Submitted via: EZCDAudioConverter 8.0.2.1
#
DISCID=a10c920a
DTITLE=Thái Châu, Tuấn Vũ - Mùa Đông Của Anh
DYEAR=1998
DGENRE=Contemporary Pop
TTITLE0=Tuấn Vũ - Hoa trinh nữ
TTITLE1=Thái Châu - Yêu một mình
TTITLE2=Tuấn Vũ - Bao đêm không ngủ
TTITLE3=Thái Châu - Xin làm người tình cô đơn
TTITLE4=Tuấn Vũ - Hai phương trời cách biệt
TTITLE5=Thái Châu - Nụ hôn cuối
TTITLE6=Tuấn Vũ - Cô láng giềng
TTITLE7=Thái Châu - Ảo ảnh
TTITLE8=Tuấn Vũ - Định mệnh buồn
TTITLE9=Thái Châu - Mùa Đông Của Anh
EXTD=
EXTT0=
EXTT1=
EXTT2=
EXTT3=
EXTT4=
EXTT5=
EXTT6=
EXTT7=
EXTT8=
EXTT9=
PLAYORDER=
